<?xml version="1.0" encoding="UTF-8" standalone="no"?><svg xmlns="http://www.w3.org/2000/svg" xmlns:xlink="http://www.w3.org/1999/xlink" contentScriptType="application/ecmascript" contentStyleType="text/css" height="517px" preserveAspectRatio="none" style="width:838px;height:517px;" version="1.1" viewBox="0 0 838 517" width="838px" zoomAndPan="magnify"><defs><filter height="300%" id="furrvy0c5zx85" width="300%" x="-1" y="-1"><feGaussianBlur result="blurOut" stdDeviation="2.0"/><feColorMatrix in="blurOut" result="blurOut2" type="matrix" values="0 0 0 0 0 0 0 0 0 0 0 0 0 0 0 0 0 0 .4 0"/><feOffset dx="4.0" dy="4.0" in="blurOut2" result="blurOut3"/><feBlend in="SourceGraphic" in2="blurOut3" mode="normal"/></filter></defs><g><!--cluster Internal--><rect fill="#FFFFFF" filter="url(#furrvy0c5zx85)" height="387" style="stroke: #000000; stroke-width: 1.5;" width="564" x="263" y="119"/><text fill="#000000" font-family="sans-serif" font-size="14" font-weight="bold" lengthAdjust="spacingAndGlyphs" textLength="60" x="515" y="133.9951">Internal</text><path d="M625.5,165.5 L625.5,190.6328 L810.5,190.6328 L810.5,175.5 L800.5,165.5 L625.5,165.5 " fill="#FBFB77" filter="url(#furrvy0c5zx85)" style="stroke: #A80036; stroke-width: 1.0;"/><path d="M800.5,165.5 L800.5,175.5 L810.5,175.5 L800.5,165.5 " fill="#FBFB77" style="stroke: #A80036; stroke-width: 1.0;"/><text fill="#000000" font-family="sans-serif" font-size="13" lengthAdjust="spacingAndGlyphs" textLength="164" x="631.5" y="182.5669">More complex subsystem</text><!--class memberHandler--><rect fill="#FEFECE" filter="url(#furrvy0c5zx85)" height="48" id="memberHandler" style="stroke: #A80036; stroke-width: 1.5;" width="132" x="458" y="154"/><ellipse cx="473" cy="170" fill="#ADD1B2" rx="11" ry="11" style="stroke: #A80036; stroke-width: 1.0;"/><path d="M475.3438,165.6719 L475.5156,165.75 C475.7344,165.4375 475.9375,165.3438 476.2344,165.3438 C476.5313,165.3438 476.8125,165.4844 476.9688,165.75 C477.0625,165.9063 477.0781,166.0313 477.0781,166.4688 L477.0781,167.8906 C477.0781,168.3125 477.0469,168.5 476.9375,168.6563 C476.7656,168.875 476.5,169.0156 476.2344,169.0156 C476.0156,169.0156 475.7813,168.9063 475.6406,168.7656 C475.5,168.6406 475.4688,168.5156 475.4063,168.1094 C475.3125,167.7031 475.1406,167.4844 474.6563,167.2031 C474.1875,166.9531 473.5781,166.7969 473,166.7969 C471.2656,166.7969 470.0156,168.1094 470.0156,169.8906 L470.0156,170.9844 C470.0156,172.6875 471.3125,173.7813 473.3594,173.7813 C474.125,173.7813 474.8125,173.6563 475.2344,173.3906 C475.4219,173.2969 475.4219,173.2969 475.875,172.8125 C476.0625,172.625 476.2656,172.5469 476.4844,172.5469 C476.9531,172.5469 477.3438,172.9375 477.3438,173.3906 C477.3438,173.7813 477.0156,174.2344 476.4375,174.6406 C475.6875,175.1875 474.5313,175.4844 473.3125,175.4844 C470.4219,175.4844 468.3125,173.5938 468.3125,171.0156 L468.3125,169.8906 C468.3125,167.1719 470.3125,165.0938 472.9375,165.0938 C473.8125,165.0938 474.4063,165.2344 475.3438,165.6719 Z "/><text fill="#000000" font-family="sans-serif" font-size="12" lengthAdjust="spacingAndGlyphs" textLength="100" x="487" y="174.1543">memberHandler</text><line style="stroke: #A80036; stroke-width: 1.5;" x1="459" x2="589" y1="186" y2="186"/><line style="stroke: #A80036; stroke-width: 1.5;" x1="459" x2="589" y1="194" y2="194"/><!--class credentialHandler--><rect fill="#FEFECE" filter="url(#furrvy0c5zx85)" height="48" id="credentialHandler" style="stroke: #A80036; stroke-width: 1.5;" width="144" x="279" y="154"/><ellipse cx="294" cy="170" fill="#ADD1B2" rx="11" ry="11" style="stroke: #A80036; stroke-width: 1.0;"/><path d="M296.3438,165.6719 L296.5156,165.75 C296.7344,165.4375 296.9375,165.3438 297.2344,165.3438 C297.5313,165.3438 297.8125,165.4844 297.9688,165.75 C298.0625,165.9063 298.0781,166.0313 298.0781,166.4688 L298.0781,167.8906 C298.0781,168.3125 298.0469,168.5 297.9375,168.6563 C297.7656,168.875 297.5,169.0156 297.2344,169.0156 C297.0156,169.0156 296.7813,168.9063 296.6406,168.7656 C296.5,168.6406 296.4688,168.5156 296.4063,168.1094 C296.3125,167.7031 296.1406,167.4844 295.6563,167.2031 C295.1875,166.9531 294.5781,166.7969 294,166.7969 C292.2656,166.7969 291.0156,168.1094 291.0156,169.8906 L291.0156,170.9844 C291.0156,172.6875 292.3125,173.7813 294.3594,173.7813 C295.125,173.7813 295.8125,173.6563 296.2344,173.3906 C296.4219,173.2969 296.4219,173.2969 296.875,172.8125 C297.0625,172.625 297.2656,172.5469 297.4844,172.5469 C297.9531,172.5469 298.3438,172.9375 298.3438,173.3906 C298.3438,173.7813 298.0156,174.2344 297.4375,174.6406 C296.6875,175.1875 295.5313,175.4844 294.3125,175.4844 C291.4219,175.4844 289.3125,173.5938 289.3125,171.0156 L289.3125,169.8906 C289.3125,167.1719 291.3125,165.0938 293.9375,165.0938 C294.8125,165.0938 295.4063,165.2344 296.3438,165.6719 Z "/><text fill="#000000" font-family="sans-serif" font-size="12" lengthAdjust="spacingAndGlyphs" textLength="112" x="308" y="174.1543">credentialHandler</text><line style="stroke: #A80036; stroke-width: 1.5;" x1="280" x2="422" y1="186" y2="186"/><line style="stroke: #A80036; stroke-width: 1.5;" x1="280" x2="422" y1="194" y2="194"/><!--entity class 2--><rect fill="#FFFFFF" filter="url(#furrvy0c5zx85)" height="36.2969" style="stroke: #000000; stroke-width: 1.5;" width="68" x="447" y="262"/><text fill="#000000" font-family="sans-serif" font-size="14" lengthAdjust="spacingAndGlyphs" textLength="48" x="457" y="284.9951">class 2</text><!--entity class 3--><rect fill="#FFFFFF" filter="url(#furrvy0c5zx85)" height="36.2969" style="stroke: #000000; stroke-width: 1.5;" width="68" x="542" y="358"/><text fill="#000000" font-family="sans-serif" font-size="14" lengthAdjust="spacingAndGlyphs" textLength="48" x="552" y="380.9951">class 3</text><!--entity class 4--><rect fill="#FFFFFF" filter="url(#furrvy0c5zx85)" height="36.2969" style="stroke: #000000; stroke-width: 1.5;" width="68" x="439" y="358"/><text fill="#000000" font-family="sans-serif" font-size="14" lengthAdjust="spacingAndGlyphs" textLength="48" x="449" y="380.9951">class 4</text><!--entity class 5--><rect fill="#FFFFFF" filter="url(#furrvy0c5zx85)" height="36.2969" style="stroke: #000000; stroke-width: 1.5;" width="68" x="439" y="454"/><text fill="#000000" font-family="sans-serif" font-size="14" lengthAdjust="spacingAndGlyphs" textLength="48" x="449" y="476.9951">class 5</text><!--entity class 6--><rect fill="#FFFFFF" filter="url(#furrvy0c5zx85)" height="36.2969" style="stroke: #000000; stroke-width: 1.5;" width="68" x="542" y="454"/><text fill="#000000" font-family="sans-serif" font-size="14" lengthAdjust="spacingAndGlyphs" textLength="48" x="552" y="476.9951">class 6</text><!--class CallCenterApp--><rect fill="#FEFECE" filter="url(#furrvy0c5zx85)" height="48" id="CallCenterApp" style="stroke: #A80036; stroke-width: 1.5;" width="120" x="185" y="27"/><ellipse cx="200" cy="43" fill="#ADD1B2" rx="11" ry="11" style="stroke: #A80036; stroke-width: 1.0;"/><path d="M202.3438,38.6719 L202.5156,38.75 C202.7344,38.4375 202.9375,38.3438 203.2344,38.3438 C203.5313,38.3438 203.8125,38.4844 203.9688,38.75 C204.0625,38.9063 204.0781,39.0313 204.0781,39.4688 L204.0781,40.8906 C204.0781,41.3125 204.0469,41.5 203.9375,41.6563 C203.7656,41.875 203.5,42.0156 203.2344,42.0156 C203.0156,42.0156 202.7813,41.9063 202.6406,41.7656 C202.5,41.6406 202.4688,41.5156 202.4063,41.1094 C202.3125,40.7031 202.1406,40.4844 201.6563,40.2031 C201.1875,39.9531 200.5781,39.7969 200,39.7969 C198.2656,39.7969 197.0156,41.1094 197.0156,42.8906 L197.0156,43.9844 C197.0156,45.6875 198.3125,46.7813 200.3594,46.7813 C201.125,46.7813 201.8125,46.6563 202.2344,46.3906 C202.4219,46.2969 202.4219,46.2969 202.875,45.8125 C203.0625,45.625 203.2656,45.5469 203.4844,45.5469 C203.9531,45.5469 204.3438,45.9375 204.3438,46.3906 C204.3438,46.7813 204.0156,47.2344 203.4375,47.6406 C202.6875,48.1875 201.5313,48.4844 200.3125,48.4844 C197.4219,48.4844 195.3125,46.5938 195.3125,44.0156 L195.3125,42.8906 C195.3125,40.1719 197.3125,38.0938 199.9375,38.0938 C200.8125,38.0938 201.4063,38.2344 202.3438,38.6719 Z "/><text fill="#000000" font-family="sans-serif" font-size="12" lengthAdjust="spacingAndGlyphs" textLength="88" x="214" y="47.1543">CallCenterApp</text><line style="stroke: #A80036; stroke-width: 1.5;" x1="186" x2="304" y1="59" y2="59"/><line style="stroke: #A80036; stroke-width: 1.5;" x1="186" x2="304" y1="67" y2="67"/><!--class FacadeForAPI--><rect fill="#FEFECE" filter="url(#furrvy0c5zx85)" height="86.4141" id="FacadeForAPI" style="stroke: #A80036; stroke-width: 1.5;" width="196" x="340" y="8"/><ellipse cx="391.25" cy="24" fill="#ADD1B2" rx="11" ry="11" style="stroke: #A80036; stroke-width: 1.0;"/><path d="M393.5938,19.6719 L393.7656,19.75 C393.9844,19.4375 394.1875,19.3438 394.4844,19.3438 C394.7813,19.3438 395.0625,19.4844 395.2188,19.75 C395.3125,19.9063 395.3281,20.0313 395.3281,20.4688 L395.3281,21.8906 C395.3281,22.3125 395.2969,22.5 395.1875,22.6563 C395.0156,22.875 394.75,23.0156 394.4844,23.0156 C394.2656,23.0156 394.0313,22.9063 393.8906,22.7656 C393.75,22.6406 393.7188,22.5156 393.6563,22.1094 C393.5625,21.7031 393.3906,21.4844 392.9063,21.2031 C392.4375,20.9531 391.8281,20.7969 391.25,20.7969 C389.5156,20.7969 388.2656,22.1094 388.2656,23.8906 L388.2656,24.9844 C388.2656,26.6875 389.5625,27.7813 391.6094,27.7813 C392.375,27.7813 393.0625,27.6563 393.4844,27.3906 C393.6719,27.2969 393.6719,27.2969 394.125,26.8125 C394.3125,26.625 394.5156,26.5469 394.7344,26.5469 C395.2031,26.5469 395.5938,26.9375 395.5938,27.3906 C395.5938,27.7813 395.2656,28.2344 394.6875,28.6406 C393.9375,29.1875 392.7813,29.4844 391.5625,29.4844 C388.6719,29.4844 386.5625,27.5938 386.5625,25.0156 L386.5625,23.8906 C386.5625,21.1719 388.5625,19.0938 391.1875,19.0938 C392.0625,19.0938 392.6563,19.2344 393.5938,19.6719 Z "/><text fill="#000000" font-family="sans-serif" font-size="12" lengthAdjust="spacingAndGlyphs" textLength="85" x="411.75" y="28.1543">FacadeForAPI</text><line style="stroke: #A80036; stroke-width: 1.5;" x1="341" x2="535" y1="40" y2="40"/><line style="stroke: #A80036; stroke-width: 1.5;" x1="341" x2="535" y1="48" y2="48"/><text fill="#000000" font-family="sans-serif" font-size="11" lengthAdjust="spacingAndGlyphs" textLength="163" x="346" y="62.2104">memberOnboard(memberId)</text><text fill="#000000" font-family="sans-serif" font-size="11" lengthAdjust="spacingAndGlyphs" textLength="184" x="346" y="75.0151">memberAuthenticate(memberId)</text><text fill="#000000" font-family="sans-serif" font-size="11" lengthAdjust="spacingAndGlyphs" textLength="114" x="346" y="87.8198">createCredential(...)</text><path d="M6,15.5 L6,86.0313 A0,0 0 0 0 6,86.0313 L150,86.0313 A0,0 0 0 0 150,86.0313 L150,55 L184.936,51 L150,47 L150,25.5 L140,15.5 L6,15.5 A0,0 0 0 0 6,15.5 " fill="#FBFB77" filter="url(#furrvy0c5zx85)" style="stroke: #A80036; stroke-width: 1.0;"/><path d="M140,15.5 L140,25.5 L150,25.5 L140,15.5 " fill="#FBFB77" style="stroke: #A80036; stroke-width: 1.0;"/><text fill="#000000" font-family="sans-serif" font-size="13" lengthAdjust="spacingAndGlyphs" textLength="123" x="12" y="32.5669">Happy client whose</text><text fill="#000000" font-family="sans-serif" font-size="13" lengthAdjust="spacingAndGlyphs" textLength="102" x="12" y="47.6997">job just became</text><text fill="#000000" font-family="sans-serif" font-size="13" lengthAdjust="spacingAndGlyphs" textLength="113" x="12" y="62.8325">easier because of</text><text fill="#000000" font-family="sans-serif" font-size="13" lengthAdjust="spacingAndGlyphs" textLength="72" x="12" y="77.9653">the facade.</text><path d="M571,31 L571,47 L536.377,51 L571,55 L571,71.2656 A0,0 0 0 0 571,71.2656 L723,71.2656 A0,0 0 0 0 723,71.2656 L723,41 L713,31 L571,31 A0,0 0 0 0 571,31 " fill="#FBFB77" filter="url(#furrvy0c5zx85)" style="stroke: #A80036; stroke-width: 1.0;"/><path d="M713,31 L713,41 L723,41 L713,31 " fill="#FBFB77" style="stroke: #A80036; stroke-width: 1.0;"/><text fill="#000000" font-family="sans-serif" font-size="13" lengthAdjust="spacingAndGlyphs" textLength="104" x="577" y="48.0669">Unified interface</text><text fill="#000000" font-family="sans-serif" font-size="13" lengthAdjust="spacingAndGlyphs" textLength="131" x="577" y="63.1997">that is easier to use.</text><!--link CallCenterApp to FacadeForAPI--><path d="M305.312,51 C315.096,51 324.88,51 334.664,51 " fill="none" id="CallCenterApp-FacadeForAPI" style="stroke: #A80036; stroke-width: 1.0;"/><polygon fill="#A80036" points="339.78,51,330.78,47,334.78,51,330.78,55,339.78,51" style="stroke: #A80036; stroke-width: 1.0;"/><!--link FacadeForAPI to memberHandler--><path d="M467.116,94.319 C480.76,114.151 496.493,137.019 507.95,153.672 " fill="none" id="FacadeForAPI-memberHandler" style="stroke: #A80036; stroke-width: 1.0;"/><!--link FacadeForAPI to credentialHandler--><path d="M408.546,94.319 C394.743,114.151 378.827,137.019 367.236,153.672 " fill="none" id="FacadeForAPI-credentialHandler" style="stroke: #A80036; stroke-width: 1.0;"/><!--link memberHandler to class 2--><path d="M514.027,202.193 C506.187,220.426 495.444,245.41 488.368,261.866 " fill="none" id="memberHandler-class 2" style="stroke: #A80036; stroke-width: 1.0;"/><!--link memberHandler to class 3--><path d="M530.169,202.253 C540.742,242.105 562.086,322.556 571.437,357.801 " fill="none" id="memberHandler-class 3" style="stroke: #A80036; stroke-width: 1.0;"/><!--link class 2 to class 4--><path d="M479.533,298.241 C478.089,315.202 475.898,340.945 474.458,357.868 " fill="none" id="class 2-class 4" style="stroke: #A80036; stroke-width: 1.0;"/><!--link class 3 to class 5--><path d="M557.108,394.241 C538.524,411.202 510.315,436.9455 491.772,453.8683 " fill="none" id="class 3-class 5" style="stroke: #A80036; stroke-width: 1.0;"/><!--link class 3 to class 6--><path d="M576,394.241 C576,411.202 576,436.9455 576,453.8683 " fill="none" id="class 3-class 6" style="stroke: #A80036; stroke-width: 1.0;"/><!--link class 4 to class 5--><path d="M473,394.241 C473,411.202 473,436.9455 473,453.8683 " fill="none" id="class 4-class 5" style="stroke: #A80036; stroke-width: 1.0;"/><!--link class 4 to class 6--><path d="M491.892,394.241 C510.476,411.202 538.685,436.9455 557.228,453.8683 " fill="none" id="class 4-class 6" style="stroke: #A80036; stroke-width: 1.0;"/><!--
@startuml
class CallCenterApp
class FacadeForAPI {
  {method} memberOnboard(memberId)
  {method} memberAuthenticate(memberId)
  {method} createCredential(...)

}
CallCenterApp -> FacadeForAPI

package "Internal" <<rectangle>> {

note "More complex subsystem" as n1

FacadeForAPI - - "memberHandler"
FacadeForAPI - - "credentialHandler"

class memberHandler {

}

class "credentialHandler" {

}

package "class 2" <<rectangle>> {
}

package "class 3" <<rectangle>> {
}

package "class 4" <<rectangle>> {
}

package "class 5" <<rectangle>> {
}

package "class 6" <<rectangle>> {
}

"memberHandler" - - "class 2"
"memberHandler" - - "class 3"
"class 2" - - "class 4"
"class 3" - - "class 5"
"class 3" - - "class 6"
"class 4" - - "class 5"
"class 4" - - "class 6"
}

note left of CallCenterApp
  Happy client whose
  job just became
  easier because of
  the facade.
end note

note right of FacadeForAPI
Unified interface
that is easier to use.
end note
@enduml

PlantUML version 1.2018.12(Sun Oct 21 10:15:15 UTC 2018)
(GPL source distribution)
Java Runtime: Java(TM) SE Runtime Environment
JVM: Java HotSpot(TM) 64-Bit Server VM
Java Version: 1.7.0_25-b15
Operating System: Linux
Default Encoding: UTF-8
Language: en
Country: US
--></g></svg>