<?xml version="1.0" encoding="UTF-8" standalone="no"?><svg xmlns="http://www.w3.org/2000/svg" xmlns:xlink="http://www.w3.org/1999/xlink" contentScriptType="application/ecmascript" contentStyleType="text/css" height="479px" preserveAspectRatio="none" style="width:946px;height:479px;" version="1.1" viewBox="0 0 946 479" width="946px" zoomAndPan="magnify"><defs><filter height="300%" id="ftreit0kd2eoe" width="300%" x="-1" y="-1"><feGaussianBlur result="blurOut" stdDeviation="2.0"/><feColorMatrix in="blurOut" result="blurOut2" type="matrix" values="0 0 0 0 0 0 0 0 0 0 0 0 0 0 0 0 0 0 .4 0"/><feOffset dx="4.0" dy="4.0" in="blurOut2" result="blurOut3"/><feBlend in="SourceGraphic" in2="blurOut3" mode="normal"/></filter></defs><g><!--cluster Internal--><rect fill="#FFFFFF" filter="url(#ftreit0kd2eoe)" height="361" style="stroke: #000000; stroke-width: 1.5;" width="825" x="110" y="107"/><text fill="#000000" font-family="sans-serif" font-size="14" font-weight="bold" lengthAdjust="spacingAndGlyphs" textLength="60" x="492.5" y="121.9951">Internal</text><!--class memberHandler--><rect fill="#FEFECE" filter="url(#ftreit0kd2eoe)" height="73.6094" id="memberHandler" style="stroke: #A80036; stroke-width: 1.5;" width="216" x="479" y="154.5"/><ellipse cx="532.75" cy="170.5" fill="#ADD1B2" rx="11" ry="11" style="stroke: #A80036; stroke-width: 1.0;"/><path d="M535.0938,166.1719 L535.2656,166.25 C535.4844,165.9375 535.6875,165.8438 535.9844,165.8438 C536.2813,165.8438 536.5625,165.9844 536.7188,166.25 C536.8125,166.4063 536.8281,166.5313 536.8281,166.9688 L536.8281,168.3906 C536.8281,168.8125 536.7969,169 536.6875,169.1563 C536.5156,169.375 536.25,169.5156 535.9844,169.5156 C535.7656,169.5156 535.5313,169.4063 535.3906,169.2656 C535.25,169.1406 535.2188,169.0156 535.1563,168.6094 C535.0625,168.2031 534.8906,167.9844 534.4063,167.7031 C533.9375,167.4531 533.3281,167.2969 532.75,167.2969 C531.0156,167.2969 529.7656,168.6094 529.7656,170.3906 L529.7656,171.4844 C529.7656,173.1875 531.0625,174.2813 533.1094,174.2813 C533.875,174.2813 534.5625,174.1563 534.9844,173.8906 C535.1719,173.7969 535.1719,173.7969 535.625,173.3125 C535.8125,173.125 536.0156,173.0469 536.2344,173.0469 C536.7031,173.0469 537.0938,173.4375 537.0938,173.8906 C537.0938,174.2813 536.7656,174.7344 536.1875,175.1406 C535.4375,175.6875 534.2813,175.9844 533.0625,175.9844 C530.1719,175.9844 528.0625,174.0938 528.0625,171.5156 L528.0625,170.3906 C528.0625,167.6719 530.0625,165.5938 532.6875,165.5938 C533.5625,165.5938 534.1563,165.7344 535.0938,166.1719 Z "/><text fill="#000000" font-family="sans-serif" font-size="12" lengthAdjust="spacingAndGlyphs" textLength="100" x="553.25" y="174.6543">memberHandler</text><line style="stroke: #A80036; stroke-width: 1.5;" x1="480" x2="694" y1="186.5" y2="186.5"/><line style="stroke: #A80036; stroke-width: 1.5;" x1="480" x2="694" y1="194.5" y2="194.5"/><text fill="#000000" font-family="sans-serif" font-size="11" lengthAdjust="spacingAndGlyphs" textLength="204" x="485" y="208.7104">Connect(memberDID, institutionDID)</text><text fill="#000000" font-family="sans-serif" font-size="11" lengthAdjust="spacingAndGlyphs" textLength="197" x="485" y="221.5151">SendCredential(Cred, memberDID)</text><!--class credentialHandler--><rect fill="#FEFECE" filter="url(#ftreit0kd2eoe)" height="60.8047" id="credentialHandler" style="stroke: #A80036; stroke-width: 1.5;" width="167" x="276.5" y="161"/><ellipse cx="301.85" cy="177" fill="#ADD1B2" rx="11" ry="11" style="stroke: #A80036; stroke-width: 1.0;"/><path d="M304.1938,172.6719 L304.3656,172.75 C304.5844,172.4375 304.7875,172.3438 305.0844,172.3438 C305.3813,172.3438 305.6625,172.4844 305.8188,172.75 C305.9125,172.9063 305.9281,173.0313 305.9281,173.4688 L305.9281,174.8906 C305.9281,175.3125 305.8969,175.5 305.7875,175.6563 C305.6156,175.875 305.35,176.0156 305.0844,176.0156 C304.8656,176.0156 304.6313,175.9063 304.4906,175.7656 C304.35,175.6406 304.3188,175.5156 304.2563,175.1094 C304.1625,174.7031 303.9906,174.4844 303.5063,174.2031 C303.0375,173.9531 302.4281,173.7969 301.85,173.7969 C300.1156,173.7969 298.8656,175.1094 298.8656,176.8906 L298.8656,177.9844 C298.8656,179.6875 300.1625,180.7813 302.2094,180.7813 C302.975,180.7813 303.6625,180.6563 304.0844,180.3906 C304.2719,180.2969 304.2719,180.2969 304.725,179.8125 C304.9125,179.625 305.1156,179.5469 305.3344,179.5469 C305.8031,179.5469 306.1938,179.9375 306.1938,180.3906 C306.1938,180.7813 305.8656,181.2344 305.2875,181.6406 C304.5375,182.1875 303.3813,182.4844 302.1625,182.4844 C299.2719,182.4844 297.1625,180.5938 297.1625,178.0156 L297.1625,176.8906 C297.1625,174.1719 299.1625,172.0938 301.7875,172.0938 C302.6625,172.0938 303.2563,172.2344 304.1938,172.6719 Z "/><text fill="#000000" font-family="sans-serif" font-size="12" lengthAdjust="spacingAndGlyphs" textLength="112" x="318.15" y="181.1543">credentialHandler</text><line style="stroke: #A80036; stroke-width: 1.5;" x1="277.5" x2="442.5" y1="193" y2="193"/><line style="stroke: #A80036; stroke-width: 1.5;" x1="277.5" x2="442.5" y1="201" y2="201"/><text fill="#000000" font-family="sans-serif" font-size="11" lengthAdjust="spacingAndGlyphs" textLength="155" x="282.5" y="215.2104">CreateCredential(credData)</text><!--class configuration--><rect fill="#FEFECE" filter="url(#ftreit0kd2eoe)" height="99.2188" id="configuration" style="stroke: #A80036; stroke-width: 1.5;" width="115" x="126.5" y="142"/><ellipse cx="141.5" cy="158" fill="#ADD1B2" rx="11" ry="11" style="stroke: #A80036; stroke-width: 1.0;"/><path d="M143.8438,153.6719 L144.0156,153.75 C144.2344,153.4375 144.4375,153.3438 144.7344,153.3438 C145.0313,153.3438 145.3125,153.4844 145.4688,153.75 C145.5625,153.9063 145.5781,154.0313 145.5781,154.4688 L145.5781,155.8906 C145.5781,156.3125 145.5469,156.5 145.4375,156.6563 C145.2656,156.875 145,157.0156 144.7344,157.0156 C144.5156,157.0156 144.2813,156.9063 144.1406,156.7656 C144,156.6406 143.9688,156.5156 143.9063,156.1094 C143.8125,155.7031 143.6406,155.4844 143.1563,155.2031 C142.6875,154.9531 142.0781,154.7969 141.5,154.7969 C139.7656,154.7969 138.5156,156.1094 138.5156,157.8906 L138.5156,158.9844 C138.5156,160.6875 139.8125,161.7813 141.8594,161.7813 C142.625,161.7813 143.3125,161.6563 143.7344,161.3906 C143.9219,161.2969 143.9219,161.2969 144.375,160.8125 C144.5625,160.625 144.7656,160.5469 144.9844,160.5469 C145.4531,160.5469 145.8438,160.9375 145.8438,161.3906 C145.8438,161.7813 145.5156,162.2344 144.9375,162.6406 C144.1875,163.1875 143.0313,163.4844 141.8125,163.4844 C138.9219,163.4844 136.8125,161.5938 136.8125,159.0156 L136.8125,157.8906 C136.8125,155.1719 138.8125,153.0938 141.4375,153.0938 C142.3125,153.0938 142.9063,153.2344 143.8438,153.6719 Z "/><text fill="#000000" font-family="sans-serif" font-size="12" lengthAdjust="spacingAndGlyphs" textLength="83" x="155.5" y="162.1543">configuration</text><line style="stroke: #A80036; stroke-width: 1.5;" x1="127.5" x2="240.5" y1="174" y2="174"/><text fill="#000000" font-family="sans-serif" font-size="11" lengthAdjust="spacingAndGlyphs" textLength="83" x="132.5" y="188.2104">CredDefSeqNo</text><text fill="#000000" font-family="sans-serif" font-size="11" lengthAdjust="spacingAndGlyphs" textLength="45" x="132.5" y="201.0151">logoURL</text><text fill="#000000" font-family="sans-serif" font-size="11" lengthAdjust="spacingAndGlyphs" textLength="89" x="132.5" y="213.8198">InstitutionName</text><text fill="#000000" font-family="sans-serif" font-size="11" lengthAdjust="spacingAndGlyphs" textLength="12" x="132.5" y="226.6245">...</text><line style="stroke: #A80036; stroke-width: 1.5;" x1="127.5" x2="240.5" y1="233.2188" y2="233.2188"/><path d="M632,316 L632,341.1328 L806,341.1328 L806,326 L796,316 L632,316 " fill="#FBFB77" filter="url(#ftreit0kd2eoe)" style="stroke: #A80036; stroke-width: 1.0;"/><path d="M796,316 L796,326 L806,326 L796,316 " fill="#FBFB77" style="stroke: #A80036; stroke-width: 1.0;"/><text fill="#000000" font-family="sans-serif" font-size="13" lengthAdjust="spacingAndGlyphs" textLength="153" x="638" y="333.0669">Maps DIDs to MemberId</text><path d="M126.5,301 L126.5,356.3984 A0,0 0 0 0 126.5,356.3984 L489.5,356.3984 A0,0 0 0 0 489.5,356.3984 L489.5,311 L479.5,301 L322.326,301 L348.588,222.126 L314.326,301 L126.5,301 A0,0 0 0 0 126.5,301 " fill="#FBFB77" filter="url(#ftreit0kd2eoe)" style="stroke: #A80036; stroke-width: 1.0;"/><path d="M479.5,301 L479.5,311 L489.5,311 L479.5,301 " fill="#FBFB77" style="stroke: #A80036; stroke-width: 1.0;"/><text fill="#000000" font-family="sans-serif" font-size="13" lengthAdjust="spacingAndGlyphs" textLength="75" x="132.5" y="318.0669">DECISIONS:</text><text fill="#000000" font-family="sans-serif" font-size="13" lengthAdjust="spacingAndGlyphs" textLength="342" x="132.5" y="333.1997">Will we store copies of Credentials? only TEMPORARILY</text><text fill="#000000" font-family="sans-serif" font-size="13" lengthAdjust="spacingAndGlyphs" textLength="307" x="132.5" y="348.3325">Will external apps need to create credential? NO</text><!--entity member--><rect fill="#FFFFFF" filter="url(#ftreit0kd2eoe)" height="36.2969" style="stroke: #000000; stroke-width: 1.5;" width="78" x="841" y="310.5"/><text fill="#000000" font-family="sans-serif" font-size="14" lengthAdjust="spacingAndGlyphs" textLength="58" x="851" y="333.4951">member</text><!--entity Mapper--><rect fill="#FFFFFF" filter="url(#ftreit0kd2eoe)" height="36.2969" style="stroke: #000000; stroke-width: 1.5;" width="72" x="525" y="310.5"/><text fill="#000000" font-family="sans-serif" font-size="14" lengthAdjust="spacingAndGlyphs" textLength="52" x="535" y="333.4951">Mapper</text><!--entity class 5--><rect fill="#FFFFFF" filter="url(#ftreit0kd2eoe)" height="36.2969" style="stroke: #000000; stroke-width: 1.5;" width="68" x="475" y="416"/><text fill="#000000" font-family="sans-serif" font-size="14" lengthAdjust="spacingAndGlyphs" textLength="48" x="485" y="438.9951">class 5</text><!--entity class 6--><rect fill="#FFFFFF" filter="url(#ftreit0kd2eoe)" height="36.2969" style="stroke: #000000; stroke-width: 1.5;" width="68" x="578" y="416"/><text fill="#000000" font-family="sans-serif" font-size="14" lengthAdjust="spacingAndGlyphs" textLength="48" x="588" y="438.9951">class 6</text><!--class CallCenterApp--><rect fill="#FEFECE" filter="url(#ftreit0kd2eoe)" height="48" id="CallCenterApp" style="stroke: #A80036; stroke-width: 1.5;" width="120" x="185" y="21"/><ellipse cx="200" cy="37" fill="#ADD1B2" rx="11" ry="11" style="stroke: #A80036; stroke-width: 1.0;"/><path d="M202.3438,32.6719 L202.5156,32.75 C202.7344,32.4375 202.9375,32.3438 203.2344,32.3438 C203.5313,32.3438 203.8125,32.4844 203.9688,32.75 C204.0625,32.9063 204.0781,33.0313 204.0781,33.4688 L204.0781,34.8906 C204.0781,35.3125 204.0469,35.5 203.9375,35.6563 C203.7656,35.875 203.5,36.0156 203.2344,36.0156 C203.0156,36.0156 202.7813,35.9063 202.6406,35.7656 C202.5,35.6406 202.4688,35.5156 202.4063,35.1094 C202.3125,34.7031 202.1406,34.4844 201.6563,34.2031 C201.1875,33.9531 200.5781,33.7969 200,33.7969 C198.2656,33.7969 197.0156,35.1094 197.0156,36.8906 L197.0156,37.9844 C197.0156,39.6875 198.3125,40.7813 200.3594,40.7813 C201.125,40.7813 201.8125,40.6563 202.2344,40.3906 C202.4219,40.2969 202.4219,40.2969 202.875,39.8125 C203.0625,39.625 203.2656,39.5469 203.4844,39.5469 C203.9531,39.5469 204.3438,39.9375 204.3438,40.3906 C204.3438,40.7813 204.0156,41.2344 203.4375,41.6406 C202.6875,42.1875 201.5313,42.4844 200.3125,42.4844 C197.4219,42.4844 195.3125,40.5938 195.3125,38.0156 L195.3125,36.8906 C195.3125,34.1719 197.3125,32.0938 199.9375,32.0938 C200.8125,32.0938 201.4063,32.2344 202.3438,32.6719 Z "/><text fill="#000000" font-family="sans-serif" font-size="12" lengthAdjust="spacingAndGlyphs" textLength="88" x="214" y="41.1543">CallCenterApp</text><line style="stroke: #A80036; stroke-width: 1.5;" x1="186" x2="304" y1="53" y2="53"/><line style="stroke: #A80036; stroke-width: 1.5;" x1="186" x2="304" y1="61" y2="61"/><!--class FacadeForAPI--><rect fill="#FEFECE" filter="url(#ftreit0kd2eoe)" height="73.6094" id="FacadeForAPI" style="stroke: #A80036; stroke-width: 1.5;" width="267" x="340.5" y="8"/><ellipse cx="427.25" cy="24" fill="#ADD1B2" rx="11" ry="11" style="stroke: #A80036; stroke-width: 1.0;"/><path d="M429.5938,19.6719 L429.7656,19.75 C429.9844,19.4375 430.1875,19.3438 430.4844,19.3438 C430.7813,19.3438 431.0625,19.4844 431.2188,19.75 C431.3125,19.9063 431.3281,20.0313 431.3281,20.4688 L431.3281,21.8906 C431.3281,22.3125 431.2969,22.5 431.1875,22.6563 C431.0156,22.875 430.75,23.0156 430.4844,23.0156 C430.2656,23.0156 430.0313,22.9063 429.8906,22.7656 C429.75,22.6406 429.7188,22.5156 429.6563,22.1094 C429.5625,21.7031 429.3906,21.4844 428.9063,21.2031 C428.4375,20.9531 427.8281,20.7969 427.25,20.7969 C425.5156,20.7969 424.2656,22.1094 424.2656,23.8906 L424.2656,24.9844 C424.2656,26.6875 425.5625,27.7813 427.6094,27.7813 C428.375,27.7813 429.0625,27.6563 429.4844,27.3906 C429.6719,27.2969 429.6719,27.2969 430.125,26.8125 C430.3125,26.625 430.5156,26.5469 430.7344,26.5469 C431.2031,26.5469 431.5938,26.9375 431.5938,27.3906 C431.5938,27.7813 431.2656,28.2344 430.6875,28.6406 C429.9375,29.1875 428.7813,29.4844 427.5625,29.4844 C424.6719,29.4844 422.5625,27.5938 422.5625,25.0156 L422.5625,23.8906 C422.5625,21.1719 424.5625,19.0938 427.1875,19.0938 C428.0625,19.0938 428.6563,19.2344 429.5938,19.6719 Z "/><text fill="#000000" font-family="sans-serif" font-size="12" lengthAdjust="spacingAndGlyphs" textLength="85" x="447.75" y="28.1543">FacadeForAPI</text><line style="stroke: #A80036; stroke-width: 1.5;" x1="341.5" x2="606.5" y1="40" y2="40"/><line style="stroke: #A80036; stroke-width: 1.5;" x1="341.5" x2="606.5" y1="48" y2="48"/><text fill="#000000" font-family="sans-serif" font-size="11" lengthAdjust="spacingAndGlyphs" textLength="255" x="346.5" y="62.2104">memberOnboard(memberId, CredentialData)</text><text fill="#000000" font-family="sans-serif" font-size="11" lengthAdjust="spacingAndGlyphs" textLength="184" x="346.5" y="75.0151">memberAuthenticate(memberId)</text><path d="M6,9.5 L6,80.0313 A0,0 0 0 0 6,80.0313 L150,80.0313 A0,0 0 0 0 150,80.0313 L150,49 L184.936,45 L150,41 L150,19.5 L140,9.5 L6,9.5 A0,0 0 0 0 6,9.5 " fill="#FBFB77" filter="url(#ftreit0kd2eoe)" style="stroke: #A80036; stroke-width: 1.0;"/><path d="M140,9.5 L140,19.5 L150,19.5 L140,9.5 " fill="#FBFB77" style="stroke: #A80036; stroke-width: 1.0;"/><text fill="#000000" font-family="sans-serif" font-size="13" lengthAdjust="spacingAndGlyphs" textLength="123" x="12" y="26.5669">Happy client whose</text><text fill="#000000" font-family="sans-serif" font-size="13" lengthAdjust="spacingAndGlyphs" textLength="102" x="12" y="41.6997">job just became</text><text fill="#000000" font-family="sans-serif" font-size="13" lengthAdjust="spacingAndGlyphs" textLength="113" x="12" y="56.8325">easier because of</text><text fill="#000000" font-family="sans-serif" font-size="13" lengthAdjust="spacingAndGlyphs" textLength="72" x="12" y="71.9653">the facade.</text><path d="M643,25 L643,41 L607.506,45 L643,49 L643,65.2656 A0,0 0 0 0 643,65.2656 L795,65.2656 A0,0 0 0 0 795,65.2656 L795,35 L785,25 L643,25 A0,0 0 0 0 643,25 " fill="#FBFB77" filter="url(#ftreit0kd2eoe)" style="stroke: #A80036; stroke-width: 1.0;"/><path d="M785,25 L785,35 L795,35 L785,25 " fill="#FBFB77" style="stroke: #A80036; stroke-width: 1.0;"/><text fill="#000000" font-family="sans-serif" font-size="13" lengthAdjust="spacingAndGlyphs" textLength="104" x="649" y="42.0669">Unified interface</text><text fill="#000000" font-family="sans-serif" font-size="13" lengthAdjust="spacingAndGlyphs" textLength="131" x="649" y="57.1997">that is easier to use.</text><!--link CallCenterApp to FacadeForAPI--><path d="M305.381,45 C315.29,45 325.199,45 335.108,45 " fill="none" id="CallCenterApp-FacadeForAPI" style="stroke: #A80036; stroke-width: 1.0;"/><polygon fill="#A80036" points="340.29,45,331.29,41,335.29,45,331.29,49,340.29,45" style="stroke: #A80036; stroke-width: 1.0;"/><!--link FacadeForAPI to memberHandler--><path d="M502.223,82.091 C519.481,104.159 541.481,132.292 558.745,154.369 " fill="none" id="FacadeForAPI-memberHandler" style="stroke: #A80036; stroke-width: 1.0;"/><!--link FacadeForAPI to credentialHandler--><path d="M445.527,82.091 C426.402,106.333 401.503,137.893 383.507,160.703 " fill="none" id="FacadeForAPI-credentialHandler" style="stroke: #A80036; stroke-width: 1.0;"/><!--link memberHandler to member--><path d="M666.386,228.54 C712.468,249.537 771.59,276.604 824,301 C830.533,304.041 837.483,307.306 844.183,310.468 " fill="none" id="memberHandler-member" style="stroke: #A80036; stroke-width: 1.0;"/><!--link memberHandler to Mapper--><path d="M580.032,228.678 C574.948,255.076 568.282,289.688 564.339,310.164 " fill="none" id="memberHandler-Mapper" style="stroke: #A80036; stroke-width: 1.0;"/><!--link Mapper to class 5--><path d="M552.413,346.591 C542.778,365.768 527.239,396.6964 517.599,415.8837 " fill="none" id="Mapper-class 5" style="stroke: #A80036; stroke-width: 1.0;"/><!--link Mapper to class 6--><path d="M569.422,346.591 C578.871,365.768 594.111,396.6964 603.566,415.8837 " fill="none" id="Mapper-class 6" style="stroke: #A80036; stroke-width: 1.0;"/><!--link Mapper to GMN211413--><path d="M597.105,328.5 C608.692,328.5 620.278,328.5 631.864,328.5 " fill="none" id="Mapper-GMN211413" style="stroke: #A80036; stroke-width: 1.0; stroke-dasharray: 7.0,7.0;"/><!--
@startuml
class CallCenterApp
class FacadeForAPI {
  {method} memberOnboard(memberId, CredentialData)
  {method} memberAuthenticate(memberId)
}

CallCenterApp -> FacadeForAPI

package "Internal" <<rectangle>> {

  FacadeForAPI - - "memberHandler"
  FacadeForAPI - - "credentialHandler"

  class memberHandler {
    {method} Connect(memberDID, institutionDID)
    {method} SendCredential(Cred, memberDID)
  }

  class "credentialHandler" {
    {method} CreateCredential(credData)

  }

  class "configuration" {
    {field} CredDefSeqNo
    {field} logoURL
    {field} InstitutionName
    {field} ...

  }

  package "member" <<rectangle>> {
  }

  package "Mapper" <<rectangle>> {
  }


  package "class 5" <<rectangle>> {
  }

  package "class 6" <<rectangle>> {
  }

  "memberHandler" - - "member"
  "memberHandler" - - "Mapper"
  "Mapper" - - "class 5"
  "Mapper" - - "class 6"
  note right of Mapper
    Maps DIDs to MemberId
  end note


  note bottom of credentialHandler
   DECISIONS: 
   Will we store copies of Credentials? only TEMPORARILY
   Will external apps need to create credential? NO
  end note
}


note left of CallCenterApp
  Happy client whose
  job just became
  easier because of
  the facade.
end note

note right of FacadeForAPI
Unified interface
that is easier to use.
end note
@enduml

PlantUML version 1.2018.12(Sun Oct 21 10:15:15 UTC 2018)
(GPL source distribution)
Java Runtime: Java(TM) SE Runtime Environment
JVM: Java HotSpot(TM) 64-Bit Server VM
Java Version: 1.7.0_25-b15
Operating System: Linux
Default Encoding: UTF-8
Language: en
Country: US
--></g></svg>